<?xml version="1.0" encoding="utf-8"?><svg xmlns="http://www.w3.org/2000/svg" xmlns:xlink="http://www.w3.org/1999/xlink"><symbol viewBox="0 0 13.226 25.496" id="facebook" xmlns="http://www.w3.org/2000/svg"><path d="M8.592 25.5V13.885h3.917l.582-4.546h-4.5v-2.9c0-1.312.365-2.21 2.248-2.21h2.386V.18A31.643 31.643 0 009.731 0C6.269 0 3.892 2.114 3.892 5.994V9.33H0v4.546h3.9V25.5z"/></symbol><symbol viewBox="0 0 24.984 24.983" id="insta" xmlns="http://www.w3.org/2000/svg"><path d="M12.488 6.082a6.409 6.409 0 106.412 6.41 6.4 6.4 0 00-6.412-6.41zm0 10.575a4.166 4.166 0 114.166-4.166 4.174 4.174 0 01-4.166 4.166zM19.16 4.326a1.495 1.495 0 10.573.113 1.5 1.5 0 00-.573-.113zm5.822 8.166c0-1.725.016-3.434-.081-5.156A7.429 7.429 0 0022.885 2.1 7.42 7.42 0 0017.648.082C15.923-.015 14.213 0 12.492 0S9.057-.015 7.335.082A7.429 7.429 0 002.1 2.1 7.42 7.42 0 00.082 7.335C-.015 9.06 0 10.77 0 12.492s-.016 3.434.081 5.156A7.429 7.429 0 002.1 22.885 7.42 7.42 0 007.335 24.9c1.725.1 3.434.081 5.156.081s3.434.016 5.156-.081a7.429 7.429 0 005.238-2.016 7.42 7.42 0 002.015-5.236c.1-1.722.081-3.431.081-5.156zm-2.75 7.369a4.263 4.263 0 01-2.375 2.375c-1.644.653-5.547.506-7.369.506s-5.728.147-7.372-.5a4.263 4.263 0 01-2.375-2.375c-.65-1.647-.5-5.55-.5-7.372s-.147-5.728.5-7.372a3.971 3.971 0 01.944-1.431 4.039 4.039 0 011.431-.944c1.644-.65 5.55-.5 7.372-.5s5.728-.147 7.372.5a3.971 3.971 0 011.431.944 4 4 0 01.944 1.431c.65 1.644.5 5.55.5 7.372s.15 5.722-.503 7.365z"/></symbol><symbol viewBox="0 0 25 25" id="mail" xmlns="http://www.w3.org/2000/svg"><path d="M12.5 0a12.5 12.5 0 000 25h6.25v-2.5H12.5a10.128 10.128 0 01-10-10 10.128 10.128 0 0110-10 10.128 10.128 0 0110 10v1.788a2.021 2.021 0 01-1.875 1.962 2.021 2.021 0 01-1.875-1.962V12.5a6.252 6.252 0 10-1.825 4.413 4.629 4.629 0 003.7 1.838A4.391 4.391 0 0025 14.288V12.5A12.5 12.5 0 0012.5 0zm0 16.25a3.75 3.75 0 113.75-3.75 3.745 3.745 0 01-3.75 3.75z"/></symbol><symbol viewBox="0 0 25.315 25.311" id="tel" xmlns="http://www.w3.org/2000/svg"><path d="M5.781 2.1a1.073 1.073 0 00-1.6-.1L2.539 3.636a2.7 2.7 0 00-.71 2.8A27.793 27.793 0 008.422 16.89a27.8 27.8 0 0010.456 6.593 2.708 2.708 0 002.8-.71l1.637-1.637a1.073 1.073 0 00-.1-1.6l-3.648-2.838a1.073 1.073 0 00-.918-.194l-3.463.866a2.761 2.761 0 01-2.622-.726l-3.889-3.892a2.761 2.761 0 01-.726-2.622l.866-3.463a1.073 1.073 0 00-.194-.918zM2.983.808a2.761 2.761 0 014.131.258L9.95 4.715a2.754 2.754 0 01.5 2.362l-.866 3.464a1.073 1.073 0 00.282 1.019l3.888 3.885a1.073 1.073 0 001.019.282l3.463-.866a2.761 2.761 0 012.364.5l3.649 2.839a2.76 2.76 0 01.258 4.131l-1.637 1.635a4.4 4.4 0 01-4.551 1.11A29.481 29.481 0 017.23 18.083 29.481 29.481 0 01.235 6.994a4.4 4.4 0 011.11-4.553L2.983.806z"/></symbol><symbol viewBox="0 0 25.02 20.983" id="telegram" xmlns="http://www.w3.org/2000/svg"><path d="M23.331.138L1.168 8.684c-1.513.608-1.5 1.451-.277 1.827l5.69 1.775L19.746 3.98c.622-.379 1.191-.175.724.24L9.8 13.847l-.392 5.865a1.481 1.481 0 001.151-.575l2.764-2.687 5.752 4.25c1.06.584 1.821.284 2.085-.981L24.933 1.93c.386-1.549-.591-2.25-1.6-1.792z"/></symbol><symbol viewBox="0 0 25 25" id="whatsup" xmlns="http://www.w3.org/2000/svg"><path d="M18.225 14.982c-.313-.159-1.839-.9-2.124-1.009s-.492-.155-.7.159-.8 1-.984 1.209-.362.22-.671.081a8.476 8.476 0 01-2.5-1.55 9.308 9.308 0 01-1.73-2.156c-.183-.309-.02-.484.134-.639s.313-.358.472-.545a2.825 2.825 0 00.309-.516.577.577 0 00-.028-.545c-.077-.155-.7-1.688-.96-2.3s-.509-.529-.7-.529c-.179-.016-.387-.016-.594-.016A1.177 1.177 0 007.316 7a3.472 3.472 0 00-1.09 2.574A6.107 6.107 0 007.5 12.78a13.912 13.912 0 005.314 4.671c.745.313 1.323.5 1.774.655a4.324 4.324 0 001.961.126 3.236 3.236 0 002.1-1.485 2.6 2.6 0 00.188-1.485c-.077-.142-.28-.22-.594-.358zm-5.66 7.674h-.016a10.44 10.44 0 01-5.27-1.437L6.9 21 3 22.013l1.05-3.8-.25-.391A10.332 10.332 0 0119.889 5.078a10.2 10.2 0 013.031 7.284 10.347 10.347 0 01-10.351 10.294zm8.809-19.063A12.655 12.655 0 0012.548 0 12.388 12.388 0 001.766 18.583L0 25l6.6-1.721a12.6 12.6 0 005.949 1.509A12.438 12.438 0 0025 12.394a12.276 12.276 0 00-3.641-8.761z"/></symbol></svg>